<svg width="30" height="31" viewBox="0 0 30 31" fill="none" xmlns="http://www.w3.org/2000/svg">
<g id="ChartDonut">
<path id="Vector" d="M15 3.65173C14.7514 3.65173 14.5129 3.75051 14.3371 3.92632C14.1613 4.10214 14.0625 4.34059 14.0625 4.58923V11.1517C14.0625 11.4004 14.1613 11.6388 14.3371 11.8146C14.5129 11.9905 14.7514 12.0892 15 12.0892C15.8255 12.0894 16.6278 12.362 17.2826 12.8646C17.9374 13.3672 18.408 14.0719 18.6215 14.8693C18.8351 15.6666 18.7795 16.5122 18.4635 17.2748C18.1475 18.0374 17.5887 18.6744 16.8738 19.087C16.1589 19.4997 15.3278 19.6649 14.5094 19.5571C13.691 19.4493 12.931 19.0745 12.3474 18.4907C11.7637 17.907 11.3889 17.147 11.2812 16.3286C11.1735 15.5102 11.3388 14.6791 11.7516 13.9642C11.8131 13.8576 11.8531 13.7399 11.8692 13.6178C11.8853 13.4957 11.8771 13.3716 11.8452 13.2527C11.8133 13.1337 11.7583 13.0222 11.6833 12.9245C11.6084 12.8269 11.5149 12.7449 11.4082 12.6834L5.7246 9.40212C5.61796 9.34054 5.50023 9.30057 5.37814 9.2845C5.25605 9.26843 5.13199 9.27657 5.01304 9.30846C4.8941 9.34034 4.7826 9.39535 4.68492 9.47034C4.58724 9.54532 4.50529 9.63882 4.44375 9.74548C3.10234 12.0689 2.56504 14.77 2.91517 17.4298C3.26531 20.0897 4.48331 22.5597 6.38029 24.4568C8.27727 26.3539 10.7472 27.5721 13.4071 27.9224C16.0669 28.2727 18.768 27.7356 21.0915 26.3943C23.415 25.053 25.231 22.9826 26.2578 20.5041C27.2847 18.0256 27.4651 15.2775 26.771 12.686C26.0768 10.0945 24.547 7.80451 22.4188 6.17107C20.2906 4.53764 17.6828 3.65208 15 3.65173ZM5.63554 11.515L9.72656 13.8775C9.49376 14.5053 9.37471 15.1696 9.375 15.8392C9.375 16.0185 9.38437 16.1908 9.40078 16.3689L4.8375 17.597C4.48163 15.5357 4.75992 13.4148 5.63554 11.515ZM5.32265 19.4029L9.89296 18.1795C10.2751 19.0124 10.8545 19.7396 11.581 20.2981C12.3076 20.8566 13.1593 21.2295 14.0625 21.3845V26.1084C12.1217 25.9285 10.2713 25.2035 8.72483 24.017C7.17839 22.8305 5.99896 21.231 5.32265 19.4029ZM15.9375 26.1084V21.3845C17.2477 21.1625 18.4369 20.4837 19.2945 19.4686C20.152 18.4535 20.6225 17.1675 20.6225 15.8386C20.6225 14.5098 20.152 13.2238 19.2945 12.2087C18.4369 11.1936 17.2477 10.5148 15.9375 10.2927V5.56892C18.4994 5.80299 20.8814 6.98618 22.6158 8.88625C24.3501 10.7863 25.3117 13.266 25.3117 15.8386C25.3117 18.4113 24.3501 20.891 22.6158 22.791C20.8814 24.6911 18.4994 25.8743 15.9375 26.1084Z" fill="#8B8B8B"/>
</g>
</svg>
