<svg width="38" height="38" viewBox="0 0 38 38" fill="none" xmlns="http://www.w3.org/2000/svg">
<g id="Coins">
<path id="Vector" d="M27.4062 13.1019V12.2969C27.4062 8.67203 21.9386 5.9375 14.6875 5.9375C7.43637 5.9375 1.96875 8.67203 1.96875 12.2969V18.0781C1.96875 21.0974 5.7627 23.4966 11.2188 24.2149V25.0156C11.2188 28.6405 16.6864 31.375 23.9375 31.375C31.1886 31.375 36.6562 28.6405 36.6562 25.0156V19.2344C36.6562 16.2426 32.9823 13.8405 27.4062 13.1019ZM8.90625 21.3836C6.07488 20.593 4.28125 19.2907 4.28125 18.0781V16.0446C5.46062 16.88 7.04035 17.5535 8.90625 18.0059V21.3836ZM20.4688 18.0059C22.3346 17.5535 23.9144 16.88 25.0938 16.0446V18.0781C25.0938 19.2907 23.3001 20.593 20.4688 21.3836V18.0059ZM18.1562 28.3211C15.3249 27.5305 13.5312 26.2282 13.5312 25.0156V24.4129C13.9114 24.4274 14.2958 24.4375 14.6875 24.4375C15.2483 24.4375 15.7961 24.4187 16.3337 24.3869C16.931 24.6007 17.5394 24.7821 18.1562 24.9304V28.3211ZM18.1562 21.8721C17.0078 22.0417 15.8484 22.1263 14.6875 22.125C13.5266 22.1263 12.3672 22.0417 11.2188 21.8721V18.4337C12.3689 18.5835 13.5276 18.6579 14.6875 18.6562C15.8474 18.6579 17.0061 18.5835 18.1562 18.4337V21.8721ZM27.4062 28.8096C25.106 29.1468 22.769 29.1468 20.4688 28.8096V25.3625C21.6185 25.5171 22.7774 25.5943 23.9375 25.5938C25.0974 25.5954 26.2561 25.521 27.4062 25.3712V28.8096ZM34.3438 25.0156C34.3438 26.2282 32.5501 27.5305 29.7188 28.3211V24.9434C31.5846 24.491 33.1644 23.8175 34.3438 22.9821V25.0156Z" fill="black"/>
</g>
</svg>
