<svg width="24" height="24" viewBox="0 0 30 31" fill="none" xmlns="http://www.w3.org/2000/svg">
<g id="HandCoins">
<path id="Vector" d="M26.9918 17.3697C26.6429 17.1013 26.2369 16.9169 25.8052 16.831C25.3735 16.745 24.9278 16.7597 24.5027 16.874L19.5996 18.0013C19.7137 17.5195 19.7172 17.018 19.6099 16.5346C19.5026 16.0511 19.2873 15.5982 18.9801 15.2099C18.6729 14.8215 18.2817 14.5077 17.836 14.2919C17.3902 14.0762 16.9015 13.9642 16.4062 13.9642H10.5398C10.0472 13.963 9.55917 14.0594 9.10398 14.2479C8.6488 14.4363 8.23548 14.7131 7.88789 15.0623L5.23711 17.7142H1.875C1.37772 17.7142 0.900806 17.9118 0.549175 18.2634C0.197544 18.615 0 19.092 0 19.5892L0 24.2767C0 24.774 0.197544 25.2509 0.549175 25.6026C0.900806 25.9542 1.37772 26.1517 1.875 26.1517H14.0625C14.1392 26.1518 14.2155 26.1423 14.2898 26.1236L21.7898 24.2486C21.8376 24.2372 21.8843 24.2215 21.9293 24.2017L26.4844 22.2635L26.5359 22.24C26.9737 22.0213 27.3486 21.6947 27.6253 21.291C27.9019 20.8873 28.0713 20.4198 28.1173 19.9326C28.1634 19.4454 28.0847 18.9545 27.8886 18.5061C27.6925 18.0577 27.3855 17.6666 26.9965 17.3697H26.9918ZM1.875 19.5892H4.6875V24.2767H1.875V19.5892ZM25.7145 20.5513L21.2613 22.4474L13.9453 24.2767H6.5625V19.0396L9.21445 16.3888C9.38793 16.214 9.59444 16.0753 9.82197 15.981C10.0495 15.8866 10.2935 15.8384 10.5398 15.8392H16.4062C16.7792 15.8392 17.1369 15.9874 17.4006 16.2511C17.6643 16.5148 17.8125 16.8725 17.8125 17.2455C17.8125 17.6184 17.6643 17.9761 17.4006 18.2399C17.1369 18.5036 16.7792 18.6517 16.4062 18.6517H13.125C12.8764 18.6517 12.6379 18.7505 12.4621 18.9263C12.2863 19.1021 12.1875 19.3406 12.1875 19.5892C12.1875 19.8379 12.2863 20.0763 12.4621 20.2521C12.6379 20.428 12.8764 20.5267 13.125 20.5267H16.875C16.9456 20.5265 17.0159 20.5187 17.0848 20.5033L24.9363 18.6974L24.9727 18.6881C25.2123 18.6215 25.4682 18.646 25.6909 18.7567C25.9136 18.8675 26.0876 19.0567 26.1792 19.2879C26.2708 19.5192 26.2737 19.7761 26.1872 20.0094C26.1008 20.2426 25.9311 20.4357 25.7109 20.5513H25.7145ZM19.2188 12.0892C19.4504 12.0895 19.6816 12.0707 19.9102 12.033C20.1672 12.7965 20.6375 13.4705 21.2655 13.9752C21.8934 14.4799 22.6527 14.7943 23.4537 14.8811C24.2546 14.9679 25.0637 14.8236 25.7852 14.4652C26.5067 14.1068 27.1106 13.5493 27.5253 12.8586C27.94 12.1679 28.1483 11.3729 28.1255 10.5676C28.1027 9.76224 27.8498 8.98029 27.3966 8.31415C26.9435 7.64802 26.3091 7.12555 25.5685 6.80853C24.8279 6.4915 24.0119 6.39317 23.2172 6.52517C22.9697 5.78952 22.524 5.13642 21.9292 4.63772C21.3345 4.13903 20.6137 3.81409 19.8461 3.69865C19.0786 3.58322 18.2941 3.68177 17.5789 3.98345C16.8638 4.28514 16.2457 4.77827 15.7928 5.40857C15.3398 6.03887 15.0696 6.78191 15.0117 7.55592C14.9538 8.32994 15.1106 9.10491 15.4648 9.79556C15.8189 10.4862 16.3568 11.0658 17.0191 11.4705C17.6814 11.8751 18.4426 12.0892 19.2188 12.0892ZM26.25 10.683C26.25 11.1465 26.1125 11.5997 25.855 11.9851C25.5975 12.3705 25.2314 12.6709 24.8032 12.8483C24.3749 13.0257 23.9037 13.0721 23.449 12.9817C22.9944 12.8913 22.5767 12.668 22.249 12.3403C21.9212 12.0125 21.698 11.5949 21.6075 11.1402C21.5171 10.6856 21.5635 10.2143 21.7409 9.78607C21.9183 9.35781 22.2187 8.99176 22.6041 8.73423C22.9896 8.47669 23.4427 8.33924 23.9062 8.33924C24.5279 8.33924 25.124 8.58617 25.5635 9.0257C26.0031 9.46524 26.25 10.0614 26.25 10.683ZM19.2188 5.52674C19.73 5.52699 20.2272 5.69444 20.6345 6.00355C21.0418 6.31265 21.3368 6.74647 21.4746 7.23884C20.9945 7.57669 20.5901 8.01104 20.2874 8.5141C19.9847 9.01716 19.7904 9.57786 19.7168 10.1603C19.5531 10.1957 19.3862 10.2137 19.2188 10.2142C18.5971 10.2142 18.001 9.96731 17.5615 9.52777C17.1219 9.08823 16.875 8.49209 16.875 7.87049C16.875 7.24888 17.1219 6.65274 17.5615 6.2132C18.001 5.77367 18.5971 5.52674 19.2188 5.52674Z" fill="#868686"/>
</g>
</svg>
