<svg width="33" height="32" viewBox="0 0 33 32" fill="none" xmlns="http://www.w3.org/2000/svg">
<g id="MicrosoftExcelLogo">
<path id="Vector" d="M25.5 3H9.5C8.96957 3 8.46086 3.21071 8.08579 3.58579C7.71071 3.96086 7.5 4.46957 7.5 5V8H5.5C4.96957 8 4.46086 8.21071 4.08579 8.58579C3.71071 8.96086 3.5 9.46957 3.5 10V22C3.5 22.5304 3.71071 23.0391 4.08579 23.4142C4.46086 23.7893 4.96957 24 5.5 24H7.5V27C7.5 27.5304 7.71071 28.0391 8.08579 28.4142C8.46086 28.7893 8.96957 29 9.5 29H25.5C26.0304 29 26.5391 28.7893 26.9142 28.4142C27.2893 28.0391 27.5 27.5304 27.5 27V5C27.5 4.46957 27.2893 3.96086 26.9142 3.58579C26.5391 3.21071 26.0304 3 25.5 3ZM20.5 13H25.5V19H20.5V13ZM25.5 11H20.5V10C20.5 9.46957 20.2893 8.96086 19.9142 8.58579C19.5391 8.21071 19.0304 8 18.5 8V5H25.5V11ZM9.5 5H16.5V8H9.5V5ZM5.5 10H18.5V19.9788C18.5 19.9862 18.5 19.9925 18.5 20C18.5 20.0075 18.5 20.0138 18.5 20.0212V22H5.5V10ZM9.5 24H16.5V27H9.5V24ZM18.5 27V24C19.0304 24 19.5391 23.7893 19.9142 23.4142C20.2893 23.0391 20.5 22.5304 20.5 22V21H25.5V27H18.5ZM8.73125 18.36L10.6987 16L8.73125 13.64C8.56151 13.4361 8.47972 13.1732 8.50386 12.909C8.52801 12.6448 8.65611 12.401 8.86 12.2312C9.06388 12.0615 9.32685 11.9797 9.59104 12.0039C9.85523 12.028 10.099 12.1561 10.2688 12.36L12 14.4375L13.7312 12.36C13.8153 12.259 13.9184 12.1756 14.0347 12.1145C14.151 12.0534 14.2781 12.0158 14.409 12.0039C14.5398 11.9919 14.6717 12.0058 14.7971 12.0449C14.9225 12.0839 15.039 12.1472 15.14 12.2312C15.241 12.3153 15.3244 12.4184 15.3855 12.5347C15.4466 12.651 15.4842 12.7781 15.4961 12.909C15.5081 13.0398 15.4942 13.1717 15.4551 13.2971C15.4161 13.4225 15.3528 13.539 15.2688 13.64L13.3013 16L15.2688 18.36C15.4385 18.5639 15.5203 18.8268 15.4961 19.091C15.472 19.3552 15.3439 19.599 15.14 19.7687C14.9361 19.9385 14.6732 20.0203 14.409 19.9961C14.1448 19.972 13.901 19.8439 13.7312 19.64L12 17.5625L10.2688 19.64C10.099 19.8439 9.85523 19.972 9.59104 19.9961C9.32685 20.0203 9.06388 19.9385 8.86 19.7687C8.65611 19.599 8.52801 19.3552 8.50386 19.091C8.47972 18.8268 8.56151 18.5639 8.73125 18.36Z" fill="white"/>
</g>
</svg>
