<svg width="46" height="47" viewBox="0 0 46 47" fill="none" xmlns="http://www.w3.org/2000/svg">
<g id="Receipt">
<path id="Vector" opacity="0.2" d="M40.25 10.3667V37.6792L34.5 34.8042L28.75 37.6792L23 34.8042L17.25 37.6792L11.5 34.8042L5.75 37.6792V10.3667C5.75 9.98545 5.90145 9.61982 6.17103 9.35023C6.44062 9.08065 6.80625 8.9292 7.1875 8.9292H38.8125C39.1937 8.9292 39.5594 9.08065 39.829 9.35023C40.0985 9.61982 40.25 9.98545 40.25 10.3667Z" fill="#343330"/>
<path id="Vector_2" d="M12.9375 18.9917C12.9375 18.6105 13.089 18.2448 13.3585 17.9752C13.6281 17.7057 13.9938 17.5542 14.375 17.5542H31.625C32.0062 17.5542 32.3719 17.7057 32.6415 17.9752C32.9111 18.2448 33.0625 18.6105 33.0625 18.9917C33.0625 19.3729 32.9111 19.7386 32.6415 20.0082C32.3719 20.2777 32.0062 20.4292 31.625 20.4292H14.375C13.9938 20.4292 13.6281 20.2777 13.3585 20.0082C13.089 19.7386 12.9375 19.3729 12.9375 18.9917ZM14.375 26.1792H31.625C32.0062 26.1792 32.3719 26.0278 32.6415 25.7582C32.9111 25.4886 33.0625 25.1229 33.0625 24.7417C33.0625 24.3605 32.9111 23.9948 32.6415 23.7252C32.3719 23.4556 32.0062 23.3042 31.625 23.3042H14.375C13.9938 23.3042 13.6281 23.4556 13.3585 23.7252C13.089 23.9948 12.9375 24.3605 12.9375 24.7417C12.9375 25.1229 13.089 25.4886 13.3585 25.7582C13.6281 26.0278 13.9938 26.1792 14.375 26.1792ZM41.6875 10.3667V37.6792C41.6874 37.9242 41.6246 38.1651 41.5052 38.379C41.3858 38.593 41.2137 38.7728 41.0052 38.9016C40.7967 39.0303 40.5588 39.1036 40.3141 39.1145C40.0693 39.1254 39.8258 39.0736 39.6067 38.964L34.5 36.4106L29.3933 38.964C29.1936 39.0639 28.9733 39.1159 28.75 39.1159C28.5267 39.1159 28.3064 39.0639 28.1067 38.964L23 36.4106L17.8933 38.964C17.6936 39.0639 17.4733 39.1159 17.25 39.1159C17.0267 39.1159 16.8064 39.0639 16.6067 38.964L11.5 36.4106L6.39328 38.964C6.17418 39.0736 5.93069 39.1254 5.68592 39.1145C5.44116 39.1036 5.20325 39.0303 4.99478 38.9016C4.78631 38.7728 4.6142 38.593 4.49479 38.379C4.37538 38.1651 4.31263 37.9242 4.3125 37.6792V10.3667C4.3125 9.6042 4.6154 8.87293 5.15457 8.33377C5.69373 7.7946 6.425 7.4917 7.1875 7.4917H38.8125C39.575 7.4917 40.3063 7.7946 40.8454 8.33377C41.3846 8.87293 41.6875 9.6042 41.6875 10.3667ZM38.8125 10.3667H7.1875V35.354L10.8567 33.5176C11.0564 33.4177 11.2767 33.3657 11.5 33.3657C11.7233 33.3657 11.9436 33.4177 12.1433 33.5176L17.25 36.0728L22.3567 33.5176C22.5564 33.4177 22.7767 33.3657 23 33.3657C23.2233 33.3657 23.4436 33.4177 23.6433 33.5176L28.75 36.0728L33.8567 33.5176C34.0564 33.4177 34.2767 33.3657 34.5 33.3657C34.7233 33.3657 34.9436 33.4177 35.1433 33.5176L38.8125 35.354V10.3667Z" fill="#343330"/>
</g>
</svg>
