<svg width="30" height="31" viewBox="0 0 30 31" fill="none" xmlns="http://www.w3.org/2000/svg">
<g id="SealQuestion">
<path id="Vector" d="M26.468 12.8885C26.0262 12.4267 25.5691 11.951 25.3969 11.5326C25.2375 11.1494 25.2281 10.5142 25.2188 9.899C25.2012 8.75525 25.1824 7.45916 24.2812 6.55798C23.3801 5.65681 22.084 5.63806 20.9402 5.62048C20.325 5.61111 19.6898 5.60173 19.3066 5.44236C18.8895 5.27009 18.4125 4.81306 17.9508 4.37126C17.1422 3.59431 16.2234 2.71423 15 2.71423C13.7766 2.71423 12.859 3.59431 12.0492 4.37126C11.5875 4.81306 11.1117 5.27009 10.6934 5.44236C10.3125 5.60173 9.675 5.61111 9.05977 5.62048C7.91602 5.63806 6.61992 5.65681 5.71875 6.55798C4.81758 7.45916 4.80469 8.75525 4.78125 9.899C4.77187 10.5142 4.7625 11.1494 4.60312 11.5326C4.43086 11.9498 3.97383 12.4267 3.53203 12.8885C2.75508 13.697 1.875 14.6158 1.875 15.8392C1.875 17.0627 2.75508 17.9802 3.53203 18.79C3.97383 19.2517 4.43086 19.7275 4.60312 20.1459C4.7625 20.5291 4.77187 21.1642 4.78125 21.7795C4.79883 22.9232 4.81758 24.2193 5.71875 25.1205C6.61992 26.0217 7.91602 26.0404 9.05977 26.058C9.675 26.0674 10.3102 26.0767 10.6934 26.2361C11.1105 26.4084 11.5875 26.8654 12.0492 27.3072C12.8578 28.0842 13.7766 28.9642 15 28.9642C16.2234 28.9642 17.141 28.0842 17.9508 27.3072C18.4125 26.8654 18.8883 26.4084 19.3066 26.2361C19.6898 26.0767 20.325 26.0674 20.9402 26.058C22.084 26.0404 23.3801 26.0217 24.2812 25.1205C25.1824 24.2193 25.2012 22.9232 25.2188 21.7795C25.2281 21.1642 25.2375 20.5291 25.3969 20.1459C25.5691 19.7287 26.0262 19.2517 26.468 18.79C27.2449 17.9814 28.125 17.0627 28.125 15.8392C28.125 14.6158 27.2449 13.6982 26.468 12.8885ZM25.1145 17.4927C24.5531 18.0787 23.9719 18.6845 23.6637 19.4287C23.3684 20.1435 23.3555 20.9603 23.3438 21.7513C23.332 22.5717 23.3191 23.4306 22.9547 23.7939C22.5902 24.1572 21.7371 24.1713 20.9121 24.183C20.1211 24.1947 19.3043 24.2076 18.5895 24.5029C17.8453 24.8111 17.2395 25.3924 16.6535 25.9537C16.0676 26.515 15.4688 27.0892 15 27.0892C14.5312 27.0892 13.9277 26.5127 13.3465 25.9537C12.7652 25.3947 12.1547 24.8111 11.4105 24.5029C10.6957 24.2076 9.87891 24.1947 9.08789 24.183C8.26758 24.1713 7.40859 24.1584 7.04531 23.7939C6.68203 23.4295 6.66797 22.5763 6.65625 21.7513C6.64453 20.9603 6.63164 20.1435 6.33633 19.4287C6.02812 18.6845 5.44687 18.0787 4.88555 17.4927C4.32422 16.9068 3.75 16.308 3.75 15.8392C3.75 15.3705 4.32656 14.767 4.88555 14.1857C5.44453 13.6045 6.02812 12.9939 6.33633 12.2498C6.63164 11.5349 6.64453 10.7181 6.65625 9.92712C6.66797 9.10681 6.68086 8.24783 7.04531 7.88455C7.40977 7.52126 8.26289 7.5072 9.08789 7.49548C9.87891 7.48376 10.6957 7.47087 11.4105 7.17556C12.1547 6.86736 12.7605 6.28611 13.3465 5.72478C13.9324 5.16345 14.5312 4.58923 15 4.58923C15.4688 4.58923 16.0723 5.1658 16.6535 5.72478C17.2348 6.28376 17.8453 6.86736 18.5895 7.17556C19.3043 7.47087 20.1211 7.48376 20.9121 7.49548C21.7324 7.5072 22.5914 7.52009 22.9547 7.88455C23.318 8.249 23.332 9.10212 23.3438 9.92712C23.3555 10.7181 23.3684 11.5349 23.6637 12.2498C23.9719 12.9939 24.5531 13.5998 25.1145 14.1857C25.6758 14.7717 26.25 15.3705 26.25 15.8392C26.25 16.308 25.6734 16.9115 25.1145 17.4927ZM16.4062 21.933C16.4062 22.2111 16.3238 22.483 16.1693 22.7143C16.0147 22.9455 15.7951 23.1258 15.5381 23.2322C15.2812 23.3386 14.9984 23.3665 14.7257 23.3122C14.4529 23.258 14.2023 23.124 14.0056 22.9274C13.809 22.7307 13.675 22.4801 13.6208 22.2073C13.5665 21.9345 13.5944 21.6518 13.7008 21.3948C13.8072 21.1379 13.9875 20.9183 14.2187 20.7637C14.45 20.6092 14.7219 20.5267 15 20.5267C15.373 20.5267 15.7306 20.6749 15.9944 20.9386C16.2581 21.2023 16.4062 21.56 16.4062 21.933ZM19.6875 13.4955C19.6875 15.5322 18.075 17.2373 15.9375 17.6299V17.7142C15.9375 17.9629 15.8387 18.2013 15.6629 18.3771C15.4871 18.553 15.2486 18.6517 15 18.6517C14.7514 18.6517 14.5129 18.553 14.3371 18.3771C14.1613 18.2013 14.0625 17.9629 14.0625 17.7142V16.7767C14.0625 16.5281 14.1613 16.2896 14.3371 16.1138C14.5129 15.938 14.7514 15.8392 15 15.8392C16.5504 15.8392 17.8125 14.7845 17.8125 13.4955C17.8125 12.2064 16.5504 11.1517 15 11.1517C13.4496 11.1517 12.1875 12.2064 12.1875 13.4955V13.9642C12.1875 14.2129 12.0887 14.4513 11.9129 14.6271C11.7371 14.803 11.4986 14.9017 11.25 14.9017C11.0014 14.9017 10.7629 14.803 10.5871 14.6271C10.4113 14.4513 10.3125 14.2129 10.3125 13.9642V13.4955C10.3125 11.1693 12.4148 9.27673 15 9.27673C17.5852 9.27673 19.6875 11.1693 19.6875 13.4955Z" fill="#8B8B8B"/>
</g>
</svg>
