<svg width="30" height="31" viewBox="0 0 30 31" fill="none" xmlns="http://www.w3.org/2000/svg">
<g id="UserPlus">
<path id="Vector" d="M30.0001 16.7767C30.0001 17.0254 29.9013 17.2638 29.7255 17.4396C29.5497 17.6154 29.3112 17.7142 29.0626 17.7142H27.1876V19.5892C27.1876 19.8379 27.0888 20.0763 26.913 20.2521C26.7372 20.4279 26.4987 20.5267 26.2501 20.5267C26.0014 20.5267 25.763 20.4279 25.5871 20.2521C25.4113 20.0763 25.3126 19.8379 25.3126 19.5892V17.7142H23.4376C23.1889 17.7142 22.9505 17.6154 22.7746 17.4396C22.5988 17.2638 22.5001 17.0254 22.5001 16.7767C22.5001 16.5281 22.5988 16.2896 22.7746 16.1138C22.9505 15.938 23.1889 15.8392 23.4376 15.8392H25.3126V13.9642C25.3126 13.7156 25.4113 13.4771 25.5871 13.3013C25.763 13.1255 26.0014 13.0267 26.2501 13.0267C26.4987 13.0267 26.7372 13.1255 26.913 13.3013C27.0888 13.4771 27.1876 13.7156 27.1876 13.9642V15.8392H29.0626C29.3112 15.8392 29.5497 15.938 29.7255 16.1138C29.9013 16.2896 30.0001 16.5281 30.0001 16.7767ZM23.2184 23.6732C23.3785 23.8637 23.4563 24.11 23.4348 24.3579C23.4132 24.6058 23.2941 24.835 23.1036 24.9951C22.9131 25.1551 22.6668 25.233 22.4189 25.2114C22.171 25.1899 21.9418 25.0708 21.7817 24.8802C19.4239 22.0724 16.1825 20.5267 12.6563 20.5267C9.13014 20.5267 5.88873 22.0724 3.53092 24.8802C3.37086 25.0706 3.14173 25.1896 2.89394 25.211C2.64615 25.2324 2.4 25.1546 2.20963 24.9945C2.01927 24.8344 1.90028 24.6053 1.87886 24.3575C1.85743 24.1097 1.93531 23.8636 2.09537 23.6732C3.84616 21.5896 6.0235 20.1095 8.44342 19.3173C6.97378 18.402 5.84223 17.0329 5.21999 15.4172C4.59773 13.8015 4.51863 12.0271 4.99465 10.3624C5.47067 8.69774 6.4759 7.2334 7.85827 6.19091C9.24064 5.14843 10.9249 4.58453 12.6563 4.58453C14.3877 4.58453 16.072 5.14843 17.4544 6.19091C18.8367 7.2334 19.842 8.69774 20.318 10.3624C20.794 12.0271 20.7149 13.8015 20.0926 15.4172C19.4704 17.0329 18.3388 18.402 16.8692 19.3173C19.2891 20.1095 21.4665 21.5896 23.2184 23.6732ZM12.6563 18.6517C13.8615 18.6517 15.0397 18.2943 16.0418 17.6247C17.0439 16.9551 17.825 16.0034 18.2862 14.8899C18.7474 13.7765 18.8681 12.5512 18.633 11.3691C18.3978 10.1871 17.8175 9.10126 16.9652 8.24904C16.113 7.39681 15.0272 6.81644 13.8451 6.58131C12.6631 6.34618 11.4378 6.46686 10.3243 6.92808C9.21085 7.3893 8.25913 8.17035 7.58954 9.17246C6.91995 10.1746 6.56256 11.3527 6.56256 12.558C6.56442 14.1736 7.20704 15.7225 8.34944 16.8648C9.49183 18.0072 11.0407 18.6499 12.6563 18.6517Z" fill="#868686"/>
</g>
</svg>
