<svg width="30" height="31" viewBox="0 0 30 31" fill="none" xmlns="http://www.w3.org/2000/svg">
<g id="UsersFour">
<path id="Vector" d="M3.1875 15.6517C3.28599 15.7256 3.39807 15.7793 3.51733 15.8099C3.63659 15.8404 3.76071 15.8472 3.88258 15.8298C4.00446 15.8124 4.12171 15.7711 4.22765 15.7084C4.33359 15.6457 4.42613 15.5627 4.5 15.4642C5.06762 14.7074 5.80364 14.0931 6.64979 13.6701C7.49594 13.247 8.42898 13.0267 9.375 13.0267C10.321 13.0267 11.2541 13.247 12.1002 13.6701C12.9464 14.0931 13.6824 14.7074 14.25 15.4642C14.3994 15.663 14.6215 15.7942 14.8677 15.8292C15.1138 15.8641 15.3637 15.7999 15.5625 15.6506C15.6334 15.5979 15.6961 15.5351 15.7488 15.4642C16.3164 14.7074 17.0525 14.0931 17.8986 13.6701C18.7448 13.247 19.6778 13.0267 20.6238 13.0267C21.5699 13.0267 22.5029 13.247 23.349 13.6701C24.1952 14.0931 24.9312 14.7074 25.4988 15.4642C25.6482 15.6631 25.8704 15.7946 26.1167 15.8296C26.3629 15.8647 26.613 15.8005 26.8119 15.6511C27.0108 15.5018 27.1423 15.2796 27.1773 15.0333C27.2124 14.7871 27.1482 14.537 26.9988 14.3381C26.169 13.2256 25.0624 12.3496 23.7891 11.7974C24.4871 11.1601 24.9762 10.3266 25.1921 9.40633C25.408 8.48607 25.3406 7.52203 24.9988 6.64073C24.6571 5.75944 24.0568 5.00207 23.2769 4.46802C22.4969 3.93397 21.5738 3.64819 20.6285 3.64819C19.6833 3.64819 18.7601 3.93397 17.9802 4.46802C17.2002 5.00207 16.6 5.75944 16.2582 6.64073C15.9164 7.52203 15.849 8.48607 16.0649 9.40633C16.2808 10.3266 16.7699 11.1601 17.468 11.7974C16.5486 12.195 15.7134 12.7641 15.007 13.4744C14.3007 12.7641 13.4655 12.195 12.5461 11.7974C13.2442 11.1601 13.7332 10.3266 13.9491 9.40633C14.165 8.48607 14.0977 7.52203 13.7559 6.64073C13.4141 5.75944 12.8138 5.00207 12.0339 4.46802C11.254 3.93397 10.3308 3.64819 9.38555 3.64819C8.44029 3.64819 7.51713 3.93397 6.7372 4.46802C5.95726 5.00207 5.35701 5.75944 5.01522 6.64073C4.67342 7.52203 4.60605 8.48607 4.82195 9.40633C5.03785 10.3266 5.52693 11.1601 6.225 11.7974C4.94608 12.3478 3.83402 13.2243 3 14.3392C2.92613 14.4377 2.87239 14.5498 2.84183 14.6691C2.81128 14.7883 2.80451 14.9124 2.82192 15.0343C2.83933 15.1562 2.88058 15.2734 2.94331 15.3794C3.00603 15.4853 3.08901 15.5779 3.1875 15.6517ZM20.625 5.52672C21.1813 5.52672 21.725 5.69167 22.1875 6.00072C22.6501 6.30976 23.0105 6.74901 23.2234 7.26293C23.4363 7.77684 23.492 8.34234 23.3835 8.88792C23.2749 9.43349 23.0071 9.93463 22.6137 10.328C22.2204 10.7213 21.7193 10.9892 21.1737 11.0977C20.6281 11.2062 20.0626 11.1505 19.5487 10.9376C19.0348 10.7248 18.5955 10.3643 18.2865 9.90177C17.9775 9.43925 17.8125 8.89548 17.8125 8.33922C17.8125 7.5933 18.1088 6.87793 18.6363 6.35049C19.1637 5.82304 19.8791 5.52672 20.625 5.52672ZM9.375 5.52672C9.93126 5.52672 10.475 5.69167 10.9375 6.00072C11.4001 6.30976 11.7605 6.74901 11.9734 7.26293C12.1863 7.77684 12.242 8.34234 12.1335 8.88792C12.0249 9.43349 11.7571 9.93463 11.3637 10.328C10.9704 10.7213 10.4693 10.9892 9.92369 11.0977C9.37812 11.2062 8.81262 11.1505 8.2987 10.9376C7.78479 10.7248 7.34553 10.3643 7.03649 9.90177C6.72745 9.43925 6.5625 8.89548 6.5625 8.33922C6.5625 7.5933 6.85882 6.87793 7.38626 6.35049C7.91371 5.82304 8.62908 5.52672 9.375 5.52672ZM23.7891 23.9849C24.4871 23.3476 24.9762 22.5141 25.1921 21.5938C25.408 20.6736 25.3406 19.7095 24.9988 18.8282C24.6571 17.9469 24.0568 17.1896 23.2769 16.6555C22.4969 16.1215 21.5738 15.8357 20.6285 15.8357C19.6833 15.8357 18.7601 16.1215 17.9802 16.6555C17.2002 17.1896 16.6 17.9469 16.2582 18.8282C15.9164 19.7095 15.849 20.6736 16.0649 21.5938C16.2808 22.5141 16.7699 23.3476 17.468 23.9849C16.5486 24.3825 15.7134 24.9516 15.007 25.6619C14.3007 24.9516 13.4655 24.3825 12.5461 23.9849C13.2442 23.3476 13.7332 22.5141 13.9491 21.5938C14.165 20.6736 14.0977 19.7095 13.7559 18.8282C13.4141 17.9469 12.8138 17.1896 12.0339 16.6555C11.254 16.1215 10.3308 15.8357 9.38555 15.8357C8.44029 15.8357 7.51713 16.1215 6.7372 16.6555C5.95726 17.1896 5.35701 17.9469 5.01522 18.8282C4.67342 19.7095 4.60605 20.6736 4.82195 21.5938C5.03785 22.5141 5.52693 23.3476 6.225 23.9849C4.94608 24.5353 3.83402 25.4118 3 26.5267C2.92613 26.6252 2.87239 26.7373 2.84183 26.8566C2.81128 26.9758 2.80451 27.0999 2.82192 27.2218C2.83933 27.3437 2.88058 27.4609 2.94331 27.5669C3.00603 27.6728 3.08901 27.7654 3.1875 27.8392C3.28599 27.9131 3.39807 27.9668 3.51733 27.9974C3.63659 28.0279 3.76071 28.0347 3.88258 28.0173C4.00446 27.9999 4.12171 27.9586 4.22765 27.8959C4.33359 27.8332 4.42613 27.7502 4.5 27.6517C5.06762 26.8949 5.80364 26.2806 6.64979 25.8576C7.49594 25.4345 8.42898 25.2142 9.375 25.2142C10.321 25.2142 11.2541 25.4345 12.1002 25.8576C12.9464 26.2806 13.6824 26.8949 14.25 27.6517C14.3994 27.8505 14.6215 27.9817 14.8677 28.0167C15.1138 28.0516 15.3637 27.9874 15.5625 27.8381C15.6334 27.7854 15.6961 27.7226 15.7488 27.6517C16.3164 26.8949 17.0525 26.2806 17.8986 25.8576C18.7448 25.4345 19.6778 25.2142 20.6238 25.2142C21.5699 25.2142 22.5029 25.4345 23.349 25.8576C24.1952 26.2806 24.9312 26.8949 25.4988 27.6517C25.6482 27.8506 25.8704 27.9821 26.1167 28.0171C26.3629 28.0522 26.613 27.988 26.8119 27.8386C27.0108 27.6893 27.1423 27.4671 27.1773 27.2208C27.2124 26.9746 27.1482 26.7245 26.9988 26.5256C26.169 25.4131 25.0624 24.5371 23.7891 23.9849ZM9.375 17.7142C9.93126 17.7142 10.475 17.8792 10.9375 18.1882C11.4001 18.4973 11.7605 18.9365 11.9734 19.4504C12.1863 19.9643 12.242 20.5298 12.1335 21.0754C12.0249 21.621 11.7571 22.1221 11.3637 22.5155C10.9704 22.9088 10.4693 23.1767 9.92369 23.2852C9.37812 23.3937 8.81262 23.338 8.2987 23.1251C7.78479 22.9123 7.34553 22.5518 7.03649 22.0893C6.72745 21.6268 6.5625 21.083 6.5625 20.5267C6.5625 19.7808 6.85882 19.0654 7.38626 18.538C7.91371 18.0105 8.62908 17.7142 9.375 17.7142ZM20.625 17.7142C21.1813 17.7142 21.725 17.8792 22.1875 18.1882C22.6501 18.4973 23.0105 18.9365 23.2234 19.4504C23.4363 19.9643 23.492 20.5298 23.3835 21.0754C23.2749 21.621 23.0071 22.1221 22.6137 22.5155C22.2204 22.9088 21.7193 23.1767 21.1737 23.2852C20.6281 23.3937 20.0626 23.338 19.5487 23.1251C19.0348 22.9123 18.5955 22.5518 18.2865 22.0893C17.9775 21.6268 17.8125 21.083 17.8125 20.5267C17.8125 19.7808 18.1088 19.0654 18.6363 18.538C19.1637 18.0105 19.8791 17.7142 20.625 17.7142Z" fill="#8B8B8B"/>
</g>
</svg>
